<svg xmlns="http://www.w3.org/2000/svg" width="388" height="349" viewBox="0 0 388 349" fill="none">
  <path d="M 137 12 C 137 5.373 131.627 0 125 0 L 12 0 C 5.373 0 0 5.373 0 12 L 0 121 C 0 127.627 5.373 133 12 133 L 102 133 C 108.627 133 114 138.373 114 145 L 114 204 C 114 210.627 108.627 216 102 216 L 12 216 C 5.373 216 0 221.373 0 228 L 0 337 C 0 343.627 5.373 349 12 349 L 125 349 C 131.627 349 137 343.627 137 337 L 137 257 C 137 250.373 142.373 245 149 245 L 239 245 C 245.627 245 251 239.627 251 233 L 251 145 C 251 138.373 256.373 133 263 133 L 376 133 C 382.627 133 388 127.627 388 121 L 388 12 C 388 5.373 382.627 0 376 0 L 263 0 C 256.373 0 251 5.373 251 12 L 251 100 C 251 106.627 245.627 112 239 112 L 149 112 C 142.373 112 137 106.627 137 100 L 137 12 Z" fill="#eeebe5" fill-rule="evenodd"></path>
</svg>