<svg aria-hidden="true" version="1.1" xmlns="http://www.w3.org/2000/svg">
  <defs>
    <!-- icon-github -->
    <symbol id="icon-github-square" viewBox="0 0 20 20" xmlns="http://www.w3.org/2000/svg">
      <path fill-rule="evenodd" clip-rule="evenodd"
        d="M9.84282 0.800049C4.40466 0.800049 0 5.20471 0 10.6429C0 14.9983 2.81751 18.6771 6.73003 19.9812C7.22217 20.0674 7.40672 19.7721 7.40672 19.5137C7.40672 19.2799 7.39442 18.5048 7.39442 17.6805C4.92141 18.1357 4.28163 17.0776 4.08477 16.524C3.97404 16.241 3.4942 15.3674 3.07588 15.1337C2.73138 14.9491 2.23924 14.4939 3.06358 14.4816C3.8387 14.4693 4.39236 15.1952 4.57691 15.4905C5.46277 16.9792 6.87767 16.5609 7.44363 16.3025C7.52976 15.6627 7.78813 15.2321 8.07111 14.986C5.88109 14.7399 3.59263 13.891 3.59263 10.1261C3.59263 9.05571 3.97404 8.16986 4.60152 7.48086C4.50309 7.23479 4.15859 6.2259 4.69995 4.87252C4.69995 4.87252 5.52428 4.61414 7.40672 5.8814C8.19415 5.65994 9.03079 5.54921 9.86743 5.54921C10.7041 5.54921 11.5407 5.65994 12.3281 5.8814C14.2106 4.60184 15.0349 4.87252 15.0349 4.87252C15.5763 6.2259 15.2318 7.23479 15.1333 7.48086C15.7608 8.16986 16.1422 9.04341 16.1422 10.1261C16.1422 13.9033 13.8415 14.7399 11.6514 14.986C12.0082 15.2936 12.3158 15.8842 12.3158 16.8069C12.3158 18.1234 12.3035 19.1815 12.3035 19.5137C12.3035 19.7721 12.4881 20.0797 12.9802 19.9812C14.9341 19.3216 16.632 18.0657 17.8349 16.3906C19.0378 14.7153 19.6851 12.7051 19.6856 10.6429C19.6856 5.20471 15.281 0.800049 9.84282 0.800049Z" />
    </symbol>

    <!-- icon-linkedin -->
    <symbol id="icon-linkedin-square" viewBox="0 0 20 20" xmlns="http://www.w3.org/2000/svg">
      <path fill-rule="evenodd" clip-rule="evenodd"
        d="M4.84099 2.64336C3.92927 2.64336 3.18753 3.38413 3.18753 4.29466C3.18753 5.20579 3.92927 5.94704 4.84099 5.94704C5.75093 5.94704 6.49121 5.20579 6.49121 4.29466C6.49121 3.38413 5.75093 2.64336 4.84099 2.64336ZM3.41319 7.19855V16.3612H6.26328L6.26436 7.19855H3.41319ZM8.05167 7.19771V16.3603L10.8953 16.3614L10.8964 11.8276C10.8964 10.6639 11.0991 9.47431 12.6027 9.47431C14.0834 9.47431 14.0834 10.8781 14.0834 11.9032V16.3603L16.9303 16.3592V11.3351C16.9303 9.06782 16.5164 6.96979 13.5143 6.96979C12.1042 6.96979 11.1815 7.7668 10.8197 8.4494H10.7797L10.7797 7.19771H8.05167ZM18.3483 19.2H1.98544C1.20474 19.2 0.56958 18.5784 0.56958 17.8144V1.38454C0.56958 0.621101 1.20474 0 1.98544 0H18.3483C19.132 0 19.7696 0.621101 19.7696 1.38454V17.8144C19.7696 18.5784 19.132 19.2 18.3483 19.2Z" />
    </symbol>

    <symbol id="icon-download" viewBox="0 0 24 32">
      <path d="M0 28h24v4h-24zM16 18v-18h-8v18h-4l8 10 8-10z"></path>
    </symbol>
  </defs>
</svg>