<svg aria-hidden="true" version="1.1" xmlns="http://www.w3.org/2000/svg">
  <defs>
    <symbol id="icon-cool2" viewBox="0 0 32 32">
      <path
        d="M16 0c-8.837 0-16 7.163-16 16s7.163 16 16 16c8.837 0 16-7.163 16-16s-7.163-16-16-16zM16 26c-1.514 0-2.95-0.337-4.236-0.94l1.036-1.727c0.98 0.428 2.061 0.667 3.199 0.667 2.913 0 5.462-1.557 6.861-3.884l1.715 1.029c-1.749 2.908-4.935 4.855-8.576 4.855zM26 12c0 1.1-0.9 2-2 2h-4c-1.1 0-2-0.9-2-2h-4c0 1.1-0.9 2-2 2h-4c-1.1 0-2-0.9-2-2v-3c0-0.55 0.45-1 1-1h6c0.55 0 1 0.45 1 1v1h4v-1c0-0.55 0.45-1 1-1h6c0.55 0 1 0.45 1 1v3z">
      </path>
    </symbol>

    <symbol id="icon-download" viewBox="0 0 24 32">
      <path d="M0 28h24v4h-24zM16 18v-18h-8v18h-4l8 10 8-10z"></path>
    </symbol>
    <symbol id="icon-check-square-o" viewBox="0 0 26 28">
      <path
        d="M22 14.531v4.969c0 2.484-2.016 4.5-4.5 4.5h-13c-2.484 0-4.5-2.016-4.5-4.5v-13c0-2.484 2.016-4.5 4.5-4.5h13c0.625 0 1.25 0.125 1.828 0.391 0.141 0.063 0.25 0.203 0.281 0.359 0.031 0.172-0.016 0.328-0.141 0.453l-0.766 0.766c-0.094 0.094-0.234 0.156-0.359 0.156-0.047 0-0.094-0.016-0.141-0.031-0.234-0.063-0.469-0.094-0.703-0.094h-13c-1.375 0-2.5 1.125-2.5 2.5v13c0 1.375 1.125 2.5 2.5 2.5h13c1.375 0 2.5-1.125 2.5-2.5v-3.969c0-0.125 0.047-0.25 0.141-0.344l1-1c0.109-0.109 0.234-0.156 0.359-0.156 0.063 0 0.125 0.016 0.187 0.047 0.187 0.078 0.313 0.25 0.313 0.453zM25.609 6.891l-12.719 12.719c-0.5 0.5-1.281 0.5-1.781 0l-6.719-6.719c-0.5-0.5-0.5-1.281 0-1.781l1.719-1.719c0.5-0.5 1.281-0.5 1.781 0l4.109 4.109 10.109-10.109c0.5-0.5 1.281-0.5 1.781 0l1.719 1.719c0.5 0.5 0.5 1.281 0 1.781z">
      </path>
    </symbol>

    <symbol id="icon-folder" viewBox="0 0 20 20">
      <path
        d="M18.405 4.799c-0.111-0.44-0.655-0.799-1.21-0.799h-6.814c-0.554 0-1.33-0.318-1.722-0.707l-0.596-0.588c-0.392-0.389-1.167-0.705-1.721-0.705h-3.255c-0.555 0-1.059 0.447-1.12 0.994l-0.292 3.006h16.931l-0.201-1.201zM19.412 7h-18.824c-0.342 0-0.61 0.294-0.577 0.635l0.923 9.669c0.037 0.394 0.369 0.696 0.766 0.696h16.6c0.397 0 0.728-0.302 0.766-0.696l0.923-9.669c0.033-0.341-0.235-0.635-0.577-0.635z">
      </path>
    </symbol>
  </defs>
</svg>