<svg width="55" height="34" viewBox="0 0 55 34" fill="none" xmlns="http://www.w3.org/2000/svg">
<path d="M0 33.27V0H6.555V3.21H3.21V30.06H6.555V33.27H0Z" fill="#681AFF"/>
<path d="M9.99484 24.91L15.4428 7.63H19.6788L25.1268 24.91H22.1508L17.2068 9.406H17.8548L12.9708 24.91H9.99484ZM13.0308 21.166V18.466H22.1028V21.166H13.0308Z" fill="#EEEBE5"/>
<path d="M27.2964 24.91V7.63H29.9004L35.8764 19.87L41.8524 7.63H44.4564V24.91H41.7564V13.834L36.4524 24.91H35.3004L30.0084 13.834V24.91H27.2964Z" fill="#EEEBE5"/>
<path d="M54.6527 33.27H48.0977V30.06H51.4427V3.21H48.0977V0H54.6527V33.27Z" fill="#681AFF"/>
</svg>
