<svg width="247" height="34" viewBox="0 0 247 34" fill="none" xmlns="http://www.w3.org/2000/svg">
<path d="M0 33.27V0H6.555V3.21H3.21V30.06H6.555V33.27H0Z" fill="#681AFF"/>
<path d="M9.99484 24.91L15.4428 7.63H19.6788L25.1268 24.91H22.1508L17.2068 9.406H17.8548L12.9708 24.91H9.99484ZM13.0308 21.166V18.466H22.1028V21.166H13.0308Z" fill="#EEEBE5"/>
<path d="M27.2964 24.91V7.63H29.9004L35.8764 19.87L41.8524 7.63H44.4564V24.91H41.7564V13.834L36.4524 24.91H35.3004L30.0084 13.834V24.91H27.2964Z" fill="#EEEBE5"/>
<path d="M54.6527 33.27H48.0977V30.06H51.4427V3.21H48.0977V0H54.6527V33.27Z" fill="#681AFF"/>
<path d="M69 25.17L73.994 9.33H77.877L82.871 25.17H80.143L75.611 10.958H76.205L71.728 25.17H69ZM71.783 21.738V19.263H80.099V21.738H71.783Z" fill="#EEEBE5"/>
<path d="M89.6228 25.17C88.5301 25.17 87.5768 24.895 86.7628 24.345C85.9488 23.795 85.3181 23.047 84.8708 22.101C84.4235 21.155 84.1998 20.088 84.1998 18.9C84.1998 17.6973 84.4235 16.6267 84.8708 15.688C85.3255 14.742 85.9671 13.9977 86.7958 13.455C87.6245 12.905 88.5998 12.63 89.7218 12.63C90.8511 12.63 91.7971 12.905 92.5598 13.455C93.3298 13.9977 93.9128 14.742 94.3088 15.688C94.7048 16.634 94.9028 17.7047 94.9028 18.9C94.9028 20.0807 94.7048 21.1477 94.3088 22.101C93.9128 23.047 93.3225 23.795 92.5378 24.345C91.7531 24.895 90.7815 25.17 89.6228 25.17ZM90.0298 22.794C90.7411 22.794 91.3131 22.6327 91.7458 22.31C92.1858 21.98 92.5048 21.5217 92.7028 20.935C92.9081 20.3483 93.0108 19.67 93.0108 18.9C93.0108 18.1227 92.9081 17.4443 92.7028 16.865C92.5048 16.2783 92.1931 15.8237 91.7678 15.501C91.3425 15.171 90.7925 15.006 90.1178 15.006C89.4065 15.006 88.8198 15.182 88.3578 15.534C87.8958 15.8787 87.5548 16.348 87.3348 16.942C87.1148 17.5287 87.0048 18.1813 87.0048 18.9C87.0048 19.626 87.1111 20.286 87.3238 20.88C87.5438 21.4667 87.8775 21.9323 88.3248 22.277C88.7721 22.6217 89.3405 22.794 90.0298 22.794ZM93.0108 24.84V16.502H92.6808V9H95.3538V24.84H93.0108Z" fill="#EEEBE5"/>
<path d="M103.685 25.17C102.497 25.17 101.459 24.9023 100.572 24.367C99.6846 23.8317 98.9952 23.0947 98.5039 22.156C98.0199 21.21 97.7779 20.1247 97.7779 18.9C97.7779 17.6533 98.0273 16.5607 98.5259 15.622C99.0246 14.6833 99.7176 13.95 100.605 13.422C101.492 12.894 102.519 12.63 103.685 12.63C104.88 12.63 105.922 12.8977 106.809 13.433C107.696 13.9683 108.386 14.709 108.877 15.655C109.368 16.5937 109.614 17.6753 109.614 18.9C109.614 20.132 109.365 21.221 108.866 22.167C108.375 23.1057 107.685 23.8427 106.798 24.378C105.911 24.906 104.873 25.17 103.685 25.17ZM103.685 22.684C104.741 22.684 105.526 22.332 106.039 21.628C106.552 20.924 106.809 20.0147 106.809 18.9C106.809 17.7487 106.549 16.832 106.028 16.15C105.507 15.4607 104.726 15.116 103.685 15.116C102.974 15.116 102.387 15.2773 101.925 15.6C101.47 15.9153 101.133 16.359 100.913 16.931C100.693 17.4957 100.583 18.152 100.583 18.9C100.583 20.0513 100.843 20.9717 101.364 21.661C101.892 22.343 102.666 22.684 103.685 22.684Z" fill="#EEEBE5"/>
<path d="M120.255 25.17V19.45C120.255 19.076 120.229 18.6617 120.178 18.207C120.126 17.7523 120.005 17.316 119.815 16.898C119.631 16.4727 119.353 16.1243 118.979 15.853C118.612 15.5817 118.113 15.446 117.483 15.446C117.145 15.446 116.812 15.501 116.482 15.611C116.152 15.721 115.851 15.9117 115.58 16.183C115.316 16.447 115.103 16.8137 114.942 17.283C114.78 17.745 114.7 18.339 114.7 19.065L113.127 18.394C113.127 17.382 113.321 16.4653 113.71 15.644C114.106 14.8227 114.685 14.17 115.448 13.686C116.21 13.1947 117.149 12.949 118.264 12.949C119.144 12.949 119.87 13.0957 120.442 13.389C121.014 13.6823 121.468 14.0563 121.806 14.511C122.143 14.9657 122.392 15.4497 122.554 15.963C122.715 16.4763 122.818 16.964 122.862 17.426C122.913 17.8807 122.939 18.251 122.939 18.537V25.17H120.255ZM112.016 25.17V13.29H114.381V16.975H114.7V25.17H112.016Z" fill="#EEEBE5"/>
<path d="M126.029 11.486V9.055H128.68V11.486H126.029ZM126.029 25.17V13.29H128.68V25.17H126.029Z" fill="#EEEBE5"/>
<path d="M136.562 25.17C135.095 25.17 133.904 24.84 132.987 24.18C132.07 23.52 131.513 22.5923 131.315 21.397L134.021 20.979C134.16 21.5657 134.468 22.0277 134.945 22.365C135.422 22.7023 136.023 22.871 136.749 22.871C137.387 22.871 137.878 22.7463 138.223 22.497C138.575 22.2403 138.751 21.892 138.751 21.452C138.751 21.1807 138.685 20.9643 138.553 20.803C138.428 20.6343 138.15 20.473 137.717 20.319C137.284 20.165 136.621 19.9707 135.726 19.736C134.729 19.472 133.937 19.1897 133.35 18.889C132.763 18.581 132.342 18.218 132.085 17.8C131.828 17.382 131.7 16.876 131.7 16.282C131.7 15.5413 131.894 14.896 132.283 14.346C132.672 13.796 133.214 13.3743 133.911 13.081C134.608 12.7803 135.429 12.63 136.375 12.63C137.299 12.63 138.117 12.773 138.828 13.059C139.547 13.345 140.126 13.752 140.566 14.28C141.006 14.808 141.277 15.4277 141.38 16.139L138.674 16.623C138.608 16.117 138.377 15.7173 137.981 15.424C137.592 15.1307 137.072 14.9657 136.419 14.929C135.796 14.8923 135.293 14.9877 134.912 15.215C134.531 15.435 134.34 15.7467 134.34 16.15C134.34 16.3773 134.417 16.5717 134.571 16.733C134.725 16.8943 135.033 17.0557 135.495 17.217C135.964 17.3783 136.661 17.5763 137.585 17.811C138.531 18.053 139.286 18.3317 139.851 18.647C140.423 18.955 140.834 19.3253 141.083 19.758C141.34 20.1907 141.468 20.715 141.468 21.331C141.468 22.5263 141.032 23.465 140.159 24.147C139.294 24.829 138.095 25.17 136.562 25.17Z" fill="#EEEBE5"/>
<path d="M148.282 25.17V9.33H153.331C153.463 9.33 153.723 9.33367 154.112 9.341C154.508 9.34834 154.889 9.374 155.256 9.418C156.51 9.57934 157.569 10.0267 158.435 10.76C159.307 11.486 159.967 12.4137 160.415 13.543C160.862 14.6723 161.086 15.908 161.086 17.25C161.086 18.592 160.862 19.8277 160.415 20.957C159.967 22.0863 159.307 23.0177 158.435 23.751C157.569 24.477 156.51 24.9207 155.256 25.082C154.896 25.126 154.519 25.1517 154.123 25.159C153.727 25.1663 153.463 25.17 153.331 25.17H148.282ZM150.977 22.673H153.331C153.551 22.673 153.829 22.6657 154.167 22.651C154.511 22.6363 154.816 22.6033 155.08 22.552C155.828 22.4127 156.436 22.079 156.906 21.551C157.375 21.023 157.72 20.3813 157.94 19.626C158.167 18.8707 158.281 18.0787 158.281 17.25C158.281 16.392 158.167 15.5853 157.94 14.83C157.712 14.0747 157.36 13.4403 156.884 12.927C156.414 12.4137 155.813 12.0873 155.08 11.948C154.816 11.8893 154.511 11.8563 154.167 11.849C153.829 11.8343 153.551 11.827 153.331 11.827H150.977V22.673Z" fill="#EEEBE5"/>
<path d="M163.03 25.17V22.453H165.747V25.17H163.03Z" fill="#EEEBE5"/>
<path d="M173.676 25.17V9.33H176.063L181.541 20.55L187.019 9.33H189.406V25.17H186.931V15.017L182.069 25.17H181.013L176.162 15.017V25.17H173.676Z" fill="#EEEBE5"/>
<path d="M195.819 25.17C194.961 25.17 194.235 25.0087 193.641 24.686C193.047 24.356 192.596 23.9197 192.288 23.377C191.987 22.8343 191.837 22.2367 191.837 21.584C191.837 21.012 191.932 20.4987 192.123 20.044C192.313 19.582 192.607 19.186 193.003 18.856C193.399 18.5187 193.912 18.2437 194.543 18.031C195.019 17.877 195.577 17.7377 196.215 17.613C196.86 17.4883 197.557 17.3747 198.305 17.272C199.06 17.162 199.848 17.0447 200.67 16.92L199.724 17.459C199.731 16.6377 199.548 16.0327 199.174 15.644C198.8 15.2553 198.169 15.061 197.282 15.061C196.746 15.061 196.229 15.1857 195.731 15.435C195.232 15.6843 194.884 16.1133 194.686 16.722L192.266 15.963C192.559 14.9583 193.116 14.1517 193.938 13.543C194.766 12.9343 195.881 12.63 197.282 12.63C198.338 12.63 199.265 12.8023 200.065 13.147C200.871 13.4917 201.469 14.0563 201.858 14.841C202.07 15.259 202.199 15.688 202.243 16.128C202.287 16.5607 202.309 17.0337 202.309 17.547V24.84H199.988V22.266L200.373 22.684C199.837 23.542 199.21 24.1727 198.492 24.576C197.78 24.972 196.889 25.17 195.819 25.17ZM196.347 23.058C196.948 23.058 197.461 22.9517 197.887 22.739C198.312 22.5263 198.649 22.266 198.899 21.958C199.155 21.65 199.328 21.3603 199.416 21.089C199.555 20.7517 199.632 20.3667 199.647 19.934C199.669 19.494 199.68 19.1383 199.68 18.867L200.494 19.109C199.694 19.2337 199.009 19.3437 198.437 19.439C197.865 19.5343 197.373 19.626 196.963 19.714C196.552 19.7947 196.189 19.8863 195.874 19.989C195.566 20.099 195.305 20.2273 195.093 20.374C194.88 20.5207 194.715 20.6893 194.598 20.88C194.488 21.0707 194.433 21.2943 194.433 21.551C194.433 21.8443 194.506 22.1047 194.653 22.332C194.799 22.552 195.012 22.728 195.291 22.86C195.577 22.992 195.929 23.058 196.347 23.058Z" fill="#EEEBE5"/>
<path d="M205.172 25.17V13.29H207.515V16.183L207.229 15.809C207.376 15.413 207.57 15.0537 207.812 14.731C208.062 14.401 208.359 14.1297 208.703 13.917C208.997 13.719 209.319 13.565 209.671 13.455C210.031 13.3377 210.397 13.268 210.771 13.246C211.145 13.2167 211.508 13.2313 211.86 13.29V15.765C211.508 15.6623 211.101 15.6293 210.639 15.666C210.185 15.7027 209.774 15.831 209.407 16.051C209.041 16.249 208.74 16.502 208.505 16.81C208.278 17.118 208.109 17.47 207.999 17.866C207.889 18.2547 207.834 18.6763 207.834 19.131V25.17H205.172Z" fill="#EEEBE5"/>
<path d="M220.922 24.9787C220.138 25.1254 219.368 25.1877 218.612 25.1657C217.864 25.151 217.193 25.0154 216.599 24.7587C216.005 24.4947 215.554 24.0804 215.246 23.5157C214.975 23.0024 214.832 22.478 214.817 21.9427C214.803 21.4074 214.795 20.8024 214.795 20.1277V9.7987H217.435V19.9737C217.435 20.4504 217.439 20.8684 217.446 21.2277C217.461 21.587 217.538 21.8804 217.677 22.1077C217.941 22.5477 218.363 22.7934 218.942 22.8447C219.522 22.896 220.182 22.8667 220.922 22.7567V24.9787ZM212.639 15.1777V13.0987H220.922V15.1777H212.639Z" fill="#EEEBE5"/>
<path d="M223.697 11.486V9.055H226.348V11.486H223.697ZM223.697 25.17V13.29H226.348V25.17H223.697Z" fill="#EEEBE5"/>
<path d="M237.86 25.17V19.45C237.86 19.076 237.834 18.6617 237.783 18.207C237.732 17.7523 237.611 17.316 237.42 16.898C237.237 16.4727 236.958 16.1243 236.584 15.853C236.217 15.5817 235.719 15.446 235.088 15.446C234.751 15.446 234.417 15.501 234.087 15.611C233.757 15.721 233.456 15.9117 233.185 16.183C232.921 16.447 232.708 16.8137 232.547 17.283C232.386 17.745 232.305 18.339 232.305 19.065L230.732 18.394C230.732 17.382 230.926 16.4653 231.315 15.644C231.711 14.8227 232.29 14.17 233.053 13.686C233.816 13.1947 234.754 12.949 235.869 12.949C236.749 12.949 237.475 13.0957 238.047 13.389C238.619 13.6823 239.074 14.0563 239.411 14.511C239.748 14.9657 239.998 15.4497 240.159 15.963C240.32 16.4763 240.423 16.964 240.467 17.426C240.518 17.8807 240.544 18.251 240.544 18.537V25.17H237.86ZM229.621 25.17V13.29H231.986V16.975H232.305V25.17H229.621Z" fill="#EEEBE5"/>
<path d="M243.854 25.17V22.453H246.571V25.17H243.854Z" fill="#681AFF"/>
</svg>
