<svg xmlns="http://www.w3.org/2000/svg" width="64" height="64" viewBox="0 0 64 64"><rect x="1" y="1" width="62" height="62" rx="13" fill="#EEEBE5" stroke="#D9D2C4" stroke-width="1.5"/><g transform="translate(9 18) scale(0.842)"><path fill="#681aff" d="M0 33.27V0H6.555V3.21H3.21V30.06H6.555V33.27H0Z"/><path fill="#28292c" d="M9.99484 24.91L15.4428 7.63H19.6788L25.1268 24.91H22.1508L17.2068 9.406H17.8548L12.9708 24.91H9.99484ZM13.0308 21.166V18.466H22.1028V21.166H13.0308Z"/><path fill="#28292c" d="M27.2964 24.91V7.63H29.9004L35.8764 19.87L41.8524 7.63H44.4564V24.91H41.7564V13.834L36.4524 24.91H35.3004L30.0084 13.834V24.91H27.2964Z"/><path fill="#681aff" d="M54.6527 33.27H48.0977V30.06H51.4427V3.21H48.0977V0H54.6527V33.27Z"/></g></svg>
