<svg width="1093" height="1128" viewBox="0 0 1093 1128" fill="none" xmlns="http://www.w3.org/2000/svg">
  <path
    d="M993.664 640.998C993.664 599.341 957.642 565.568 913.209 565.568C910.349 565.568 907.531 565.712 904.75 565.988L1015.26 260.422H545.644L655.997 565.721C654.368 565.624 652.737 565.575 651.106 565.571C606.673 565.571 570.65 599.338 570.65 641.001C570.65 674.673 594.19 703.182 626.675 712.881C609.518 740.744 587.926 765.843 563.413 787.527C530.079 817.006 491.931 839.363 450.671 853.136C401.547 829.477 378.35 776.86 399.28 730.726C401.645 725.515 404.058 720.235 406.364 714.977C441.952 707.19 468.474 677.28 468.474 641.541C468.474 599.881 432.452 566.111 388.016 566.111C343.58 566.111 307.561 599.881 307.561 641.541C307.561 667.087 321.116 689.652 341.841 703.297C321.927 745.804 292.655 790.292 283.534 841.852C272.604 903.643 283.497 969.235 340.502 1006.28C473.261 1092.54 617.371 952.799 769.314 917.669C824.38 904.94 884.828 906.991 933.343 880.649C969.776 860.866 993.796 828.078 1000.61 791.271C1007.35 754.909 997.529 718.704 974.952 689.348C987.064 675.798 993.691 658.677 993.664 640.998Z"
    fill="#99425B" />
  <path
    d="M981.252 788.118C975.335 820.076 954.282 847.988 923.496 864.707C894.796 880.29 860.406 884.942 823.991 889.863C804.485 892.499 784.315 895.229 764.61 899.783C712.508 911.829 662.042 935.33 613.242 958.057C515.575 1003.54 431.23 1042.81 351.699 991.134C293.442 953.282 296.131 883.245 302.918 844.867C309.208 809.308 326.215 776.561 342.658 744.893C345.46 739.511 348.239 734.119 350.995 728.716C359.284 731.823 367.981 733.868 376.853 734.798C360.112 786.593 386.439 842.911 441.692 869.523L449.256 873.166L457.262 870.493C500.945 855.907 541.197 832.506 576.898 800.924C599.975 780.512 619.818 757.929 636.126 733.799C641.084 734.5 646.091 734.852 651.106 734.852C701.82 734.852 743.815 699.308 750.314 653.402C771.072 652.69 793.12 652.684 813.998 653.396C820.491 699.308 862.492 734.855 913.206 734.855C934.412 734.855 954.08 728.624 970.284 718.041C981.533 739.63 985.732 763.921 981.252 788.118ZM388.019 584.533C421.549 584.533 448.825 610.108 448.825 641.543C448.825 652.833 445.29 663.362 439.223 672.229C429.117 687.008 411.935 697.138 392.196 698.401C390.815 698.487 389.422 698.55 388.019 698.55C380.546 698.55 373.389 697.273 366.77 694.953C353.441 690.253 342.279 681.34 335.21 669.751C329.961 661.165 327.202 651.44 327.21 641.543C327.21 610.108 354.489 584.533 388.019 584.533ZM590.303 641.001C590.303 612.44 612.823 588.725 642.083 584.625C645.029 584.209 648.043 583.993 651.109 583.993C670.602 583.993 687.958 592.65 699.088 606.065C701.876 609.41 704.257 613.036 706.187 616.876C709.967 624.424 711.922 632.662 711.914 641.001C711.914 645.557 711.326 649.988 710.245 654.237C704.319 677.495 683.165 695.274 657.243 697.72C655.228 697.91 653.182 698.008 651.109 698.008C639.413 698.017 627.965 694.844 618.155 688.874C601.414 678.707 590.303 661.051 590.303 641.001ZM844.088 573.209C830.856 585.05 821.333 600.061 816.552 616.614C793.633 615.822 770.691 615.822 747.772 616.614C742.626 598.72 731.962 582.934 717.614 570.943L780.536 451.663L844.088 573.209ZM573.051 278.85H987.846L889.875 549.744C885.66 550.691 881.516 551.895 877.468 553.348L780.689 368.255L683.634 552.243C679.403 550.881 675.079 549.788 670.691 548.972L573.051 278.85ZM974.012 641.003C974.012 646.717 973.102 652.236 971.427 657.447C967.452 669.717 959.198 680.379 947.988 687.725C937.8 694.429 925.653 698.021 913.206 698.01C885.131 698.01 861.447 680.073 854.483 655.782C853.1 650.963 852.4 645.994 852.4 641.003C852.4 633.211 854.079 625.78 857.111 619.009C858.675 615.545 860.602 612.234 862.862 609.126C873.805 593.983 892.27 583.996 913.206 583.996C915.126 583.996 917.019 584.088 918.896 584.255C949.768 586.951 974.012 611.366 974.012 641.003ZM1013.31 641.003C1013.31 595.183 978.1 556.951 931.72 548.785L1042.67 242H518.236L629.355 549.406C584.585 558.746 551.003 596.254 551.003 641.001C551.003 674.601 569.943 704.112 598.327 720.697C584.674 739.768 568.485 757.714 549.931 774.126C520.506 800.149 487.726 819.886 452.386 832.873C416.789 811.91 401.743 772.375 417.368 737.936L418.593 735.237L420.89 730.172C459.988 717.386 488.124 682.5 488.124 641.543C488.124 589.791 443.217 547.689 388.019 547.689C332.821 547.689 287.908 589.791 287.908 641.543C287.908 667.664 299.362 691.317 317.793 708.35C314.355 715.178 310.866 721.983 307.325 728.765C290.471 761.214 271.372 797.992 264.148 838.837C249.802 919.951 272.944 984.794 329.311 1021.42C363.515 1043.64 398.251 1052.38 433.205 1052.38C499.021 1052.38 565.603 1021.38 630.724 991.054C677.622 969.217 726.119 946.635 774.021 935.557C791.846 931.437 810.185 928.956 829.602 926.332C868.109 921.123 907.923 915.739 943.192 896.59C984.075 874.389 1012.06 837.149 1019.97 794.423C1026.77 757.742 1018.59 721.004 998.654 689.844C1008.26 675.146 1013.34 658.239 1013.31 641.001V641.003Z"
    fill="white" />
</svg>