<svg width="81" height="58" viewBox="0 0 81 58" fill="none" xmlns="http://www.w3.org/2000/svg">
  <g clip-path="url(#clip0_10_12)">
    <path
      d="M66.1199 34.1819C63.4919 34.1969 61.2169 34.8279 59.3079 35.7679C58.6029 34.3729 57.8979 33.1549 57.7809 32.2449C57.6489 31.1879 57.4869 30.5419 57.6489 29.2789C57.8109 28.0159 58.5449 26.2249 58.5449 26.0789C58.5299 25.9469 58.3849 25.3009 56.8709 25.2859C55.3569 25.2709 54.0509 25.5799 53.9049 25.9859C53.643 26.7191 53.4322 27.4696 53.2739 28.2319C53.0099 29.6119 50.2499 34.5019 48.6789 37.0699C48.1649 36.0719 47.7249 35.1899 47.6369 34.4859C47.5049 33.4289 47.3429 32.7829 47.5049 31.5199C47.6669 30.2569 48.4009 28.4659 48.4009 28.3199C48.3859 28.1879 48.2409 27.5419 46.7269 27.5269C45.2129 27.5119 43.9069 27.8209 43.7609 28.2269C43.6149 28.6329 43.4529 29.5629 43.1309 30.4729C42.8229 31.3729 39.1529 39.5459 38.1979 41.6729C37.7139 42.7589 37.2979 43.6259 36.9779 44.2129C36.6579 44.7999 36.9629 44.2569 36.9339 44.3159L36.5239 45.0939V45.1089C36.3179 45.4759 36.0979 45.8289 35.9939 45.8289C35.9209 45.8289 35.7739 44.8449 36.0239 43.4949C36.5669 40.6619 37.8879 36.2429 37.8739 36.0809C37.8739 36.0079 38.1239 35.2309 37.0239 34.8329C35.9519 34.4369 35.5709 35.0969 35.4839 35.0969C35.3969 35.0969 35.3239 35.3319 35.3239 35.3319C35.3239 35.3319 36.5139 30.3549 33.0479 30.3549C30.8749 30.3549 27.8799 32.7189 26.3979 34.8769L18.9109 38.9729L18.7509 38.7969C14.5509 34.3189 6.78593 31.1469 7.10893 25.1289C7.22593 22.9419 7.98894 17.1719 22.0249 10.1839C33.5199 4.45891 42.7249 6.02891 44.3249 9.52391C46.6009 14.5139 39.4069 23.7939 27.4569 25.1299C22.9069 25.6439 20.5129 23.8819 19.9109 23.2219C19.2809 22.5219 19.1909 22.5019 18.9569 22.6349C18.5749 22.8409 18.8099 23.4569 18.9569 23.8249C19.3089 24.7499 20.7769 26.3949 23.2729 27.2149C25.4599 27.9349 30.8029 28.3309 37.2629 25.8349C44.4959 22.9999 50.1479 15.2299 48.4899 8.72491C46.7999 2.10391 35.8199 -0.0680861 25.4399 3.61691C19.2599 5.81991 12.5659 9.25391 7.74994 13.7599C2.02494 19.1039 1.11394 23.7719 1.49594 25.7099C2.83194 32.6249 12.3599 37.1319 16.1759 40.4639L15.6459 40.7579C13.7379 41.6979 6.47093 45.4999 4.64994 49.5219C2.59493 54.0719 4.97294 57.3469 6.55794 57.7869C11.4609 59.1519 16.4819 56.7009 19.1979 52.6629C21.8979 48.6259 21.5759 43.3849 20.3279 40.9929L20.2839 40.9049L21.7809 40.0249C22.6917 39.49 23.6118 38.9712 24.5409 38.4689C24.0709 39.7459 23.7339 41.2589 23.5569 43.4589C23.3509 46.0429 24.4069 49.3889 25.8029 50.7109C26.4199 51.2839 27.1529 51.2979 27.6089 51.2979C29.2239 51.2979 29.9589 49.9619 30.7649 48.3619C31.7629 46.4089 32.6449 44.1489 32.6449 44.1489C32.6449 44.1489 31.5449 50.2709 34.5529 50.2709C35.6529 50.2709 36.7549 48.8469 37.2529 48.1129V48.1279C37.2529 48.1279 37.2829 48.0839 37.3409 47.9809C37.4579 47.8049 37.5169 47.7009 37.5169 47.7009V47.6709C37.9569 46.9079 38.9409 45.1709 40.4089 42.2679C42.3029 38.5379 44.1229 33.8709 44.1229 33.8709C44.1229 33.8709 44.2989 35.0159 44.8429 36.8949C45.1659 38.0109 45.8709 39.2289 46.4129 40.4179L45.7079 41.3879L45.7229 41.4029C45.3709 41.8729 44.9729 42.3729 44.5629 42.8709C43.0659 44.6609 41.2749 46.7029 41.0399 47.2909C40.7599 47.9909 40.8199 48.4949 41.3629 48.9059C41.7589 49.1999 42.4629 49.2579 43.2129 49.1999C44.5629 49.1119 45.5129 48.7739 45.9729 48.5699C46.8204 48.2679 47.6209 47.8477 48.3509 47.3219C49.8189 46.2359 50.7149 44.6939 50.6269 42.6389C50.5829 41.5089 50.2169 40.3929 49.7609 39.3359L50.1569 38.7489C52.4769 35.3589 54.2669 31.6289 54.2669 31.6289C54.2669 31.6289 54.4429 32.7739 54.9869 34.6529C55.2669 35.6069 55.8239 36.6499 56.3229 37.6769C54.1499 39.4529 52.7849 41.5089 52.3149 42.8589C51.4489 45.3549 52.1249 46.4849 53.4009 46.7589C53.9739 46.8759 54.7959 46.6119 55.4109 46.3489C56.1739 46.0989 57.0989 45.6739 57.9509 45.0419C59.4189 43.9559 60.8279 42.4439 60.7549 40.4019C60.7109 39.4619 60.4609 38.5379 60.1249 37.6569C61.9749 36.8939 64.3679 36.4529 67.4069 36.8199C73.9399 37.5829 75.2319 41.6649 74.9819 43.3679C74.7319 45.0709 73.3669 46.0109 72.9119 46.3039C72.4569 46.5839 72.3099 46.6859 72.3539 46.8909C72.4139 47.1989 72.6179 47.1849 73.0139 47.1259C73.5569 47.0379 76.4489 45.7309 76.5669 42.5899C76.7429 38.5529 72.9109 34.1499 66.1139 34.1929L66.1199 34.1819ZM15.7369 51.1669C13.5789 53.5309 10.5399 54.4269 9.24694 53.6629C7.85194 52.8559 8.39694 49.3759 11.0529 46.8659C12.6679 45.3389 14.7669 43.9299 16.1469 43.0639L17.4829 42.2569C17.5709 42.1969 17.6299 42.1689 17.6299 42.1689C17.7329 42.1089 17.8499 42.0369 17.9679 41.9629C18.9519 45.5449 18.0119 48.6869 15.7379 51.1679L15.7369 51.1669ZM31.5189 40.4349C30.7689 42.2699 29.1849 46.9829 28.2309 46.7179C27.4089 46.4979 26.9109 42.9299 28.0709 39.4079C28.6579 37.6319 29.9059 35.5079 30.6409 34.6949C31.8309 33.3749 33.1209 32.9329 33.4449 33.4769C33.8269 34.1819 31.9919 39.2909 31.5219 40.4369L31.5189 40.4349ZM44.5399 46.6599C44.2169 46.8199 43.9229 46.9399 43.7899 46.8499C43.6869 46.7899 43.9219 46.5699 43.9219 46.5699C43.9219 46.5699 45.5519 44.8229 46.1979 44.0159L47.4749 42.3859V42.5619C47.4749 44.6759 45.4489 46.0849 44.5389 46.6579L44.5399 46.6599ZM54.5819 44.3599C54.3469 44.1839 54.3759 43.6399 55.1689 41.9379C55.4769 41.2629 56.1819 40.1319 57.3989 39.0609C57.5459 39.5009 57.6339 39.9269 57.6189 40.3239C57.6039 42.9669 55.7249 43.9499 54.5789 44.3609L54.5819 44.3599Z"
      fill="#CF649A" />
  </g>
  <defs>
    <clipPath id="clip0_10_12">
      <rect width="81" height="58" fill="white" />
    </clipPath>
  </defs>
</svg>